<svg width="36" height="21" viewBox="0 0 36 21" fill="none" xmlns="http://www.w3.org/2000/svg">
<path d="M17.1511 20.4157H19.2456C19.2456 20.4157 19.8788 20.3456 20.2009 19.9973C20.4988 19.6774 20.4879 19.0771 20.4879 19.0771C20.4879 19.0771 20.4462 16.2661 21.752 15.852C23.0381 15.4445 24.6901 18.5688 26.4406 19.7716C27.764 20.6808 28.7696 20.4815 28.7696 20.4815L33.4516 20.4157C33.4516 20.4157 35.9011 20.2646 34.7399 18.3387C34.6457 18.181 34.0629 16.9146 31.2585 14.3118C28.3226 11.5863 28.717 12.0289 32.2532 7.31617C34.4069 4.44605 35.2679 2.69331 34.9984 1.94401C34.7421 1.22977 33.158 1.41819 33.158 1.41819L27.891 1.44886C27.891 1.44886 27.501 1.39628 27.2097 1.56936C26.927 1.74025 26.7452 2.13462 26.7452 2.13462C26.7452 2.13462 25.9104 4.35622 24.7974 6.2448C22.451 10.2301 21.511 10.4404 21.1276 10.1929C20.2359 9.61665 20.4594 7.87486 20.4594 6.63917C20.4594 2.77656 21.0444 1.16623 19.3179 0.749952C18.7439 0.611923 18.3232 0.519904 16.8575 0.504567C14.9777 0.484849 13.3849 0.51114 12.4844 0.951517C11.8841 1.2451 11.4218 1.90019 11.7044 1.93744C12.0528 1.98345 12.8415 2.14996 13.26 2.7196C13.8012 3.45356 13.7814 5.10552 13.7814 5.10552C13.7814 5.10552 14.0926 9.6517 13.0562 10.217C12.3442 10.6048 11.3692 9.81383 9.27689 6.1966C8.20552 4.34527 7.39488 2.29675 7.39488 2.29675C7.39488 2.29675 7.23932 1.91553 6.96107 1.71177C6.62367 1.4642 6.15043 1.38532 6.15043 1.38532L1.14196 1.41599C1.14196 1.41599 0.390475 1.4379 0.114417 1.76435C-0.130967 2.05575 0.0946991 2.65606 0.0946991 2.65606C0.0946991 2.65606 4.01646 11.8295 8.45529 16.4545C12.5282 20.694 17.1511 20.4157 17.1511 20.4157Z" fill="#1E88E5"/>
</svg>
